<svg xmlns="http://www.w3.org/2000/svg" width="400" height="400" viewBox="0 0 400 400">
<g>
<path d="M 0.00 360.48 L 0.00 182.51 L 78.00 260.49 L 111.25 227.25 L 144.49 194.01 L 123.16 172.66 L 101.83 151.32 L 106.67 149.25 C109.33,148.12 117.80,144.62 125.50,141.48 C138.51,136.18 202.44,109.89 306.92,66.87 C330.79,57.04 350.42,49.11 350.54,49.25 C350.65,49.39 342.33,69.97 332.04,95.00 C321.74,120.03 302.04,167.95 288.24,201.50 C274.45,235.05 259.86,270.48 255.83,280.23 L 248.50 297.96 L 205.99 255.51 L 172.75 288.76 L 139.50 322.01 L 218.50 399.89 L 400.00 400.00 L 39.48 400.00 L 0.00 360.48 ZM 88.25 310.75 C101.03,323.54 111.94,334.00 112.49,334.00 C113.04,334.00 134.31,313.19 159.74,287.76 L 205.99 241.51 L 244.93 280.41 L 246.36 276.96 C271.10,217.33 331.93,68.59 331.68,68.34 C331.42,68.08 133.83,148.88 122.07,154.05 C119.72,155.08 120.31,155.79 139.06,174.56 L 158.49 194.01 L 111.74 240.76 L 65.00 287.51 Z" fill="rgba(11,15,24,1)"/>
<path d="M 262.86 263.44 L 399.50 398.68 L 399.75 219.10 L 400.00 43.41 L 400.00 400.00 L 218.50 399.89 L 139.50 322.01 L 172.75 288.76 L 205.99 255.51 L 248.50 297.96 L 255.83 280.23 C259.86,270.48 274.45,235.05 288.24,201.50 C302.04,167.95 321.74,120.03 332.04,95.00 C321.74,120.03 301.97,168.16 288.09,201.97 L 262.86 263.44 ZM -0.00 0.50 L 136.49 136.98 C131.39,139.08 127.71,140.58 125.50,141.48 C117.80,144.62 109.33,148.12 106.67,149.25 L 101.83 151.32 L 123.16 172.66 L 144.49 194.01 L 111.25 227.25 L 78.00 260.49 L 0.00 182.51 L -0.00 0.50 ZM 350.54 49.25 C350.44,49.22 347.73,50.27 343.15,52.10 C347.78,50.25 350.49,49.20 350.54,49.25 L 350.54 49.25 ZM 308.39 66.27 C307.90,66.47 307.41,66.67 306.92,66.87 C305.08,67.63 303.26,68.38 301.45,69.13 C302.47,68.70 303.46,68.30 304.41,67.90 C305.75,67.35 307.08,66.81 308.39,66.27 Z" fill="rgba(59,129,243,1)"/>
<path d="M 399.75 221.20 L 357.78 179.26 C334.55,156.05 315.23,137.38 314.86,137.78 C314.49,138.18 302.63,166.61 288.52,200.97 L 262.86 263.44 L 262.86 263.44 L 288.09 201.97 C301.97,168.16 321.74,120.03 332.04,95.00 C342.33,69.97 350.65,49.39 350.54,49.25 C350.42,49.11 329.67,57.50 304.41,67.90 C293.38,72.45 277.99,78.78 261.36,85.63 C262.78,84.44 258.36,79.87 220.95,42.45 L 178.51 0.00 L 360.52 0.00 L 380.26 19.76 L 400.01 39.52 L 399.75 219.10 L 399.75 221.20 ZM 142.24 134.68 L 136.53 137.03 L 75.48 75.98 C109.73,110.16 136.99,136.83 137.50,136.63 C137.63,136.57 139.31,135.89 142.24,134.68 ZM 22.78 23.28 L -0.50 0.00 L -0.49 0.00 L 22.78 23.28 Z" fill="rgba(254,126,0,1)"/>
<path d="M 68.00 68.51 L -0.49 0.00 L 178.51 0.00 L 220.95 42.45 C261.21,82.72 263.27,84.95 260.95,85.86 C259.60,86.39 231.50,97.94 198.50,111.53 C165.50,125.12 138.05,136.41 137.50,136.63 C136.95,136.84 105.68,106.19 68.00,68.51 ZM 262.86 263.44 L 288.52 200.97 C302.63,166.61 314.49,138.18 314.86,137.78 C315.23,137.38 334.55,156.05 357.78,179.26 L 400.01 221.46 L 399.76 310.07 L 399.50 398.68 L 262.86 263.44 Z" fill="rgba(254,254,0,1)"/>
<path d="M 88.25 310.75 L 65.00 287.51 L 111.74 240.76 L 158.49 194.01 L 139.06 174.56 C120.31,155.79 119.72,155.08 122.07,154.05 C133.83,148.88 331.42,68.08 331.68,68.34 C331.93,68.59 271.10,217.33 246.36,276.96 L 244.93 280.41 L 225.46 260.96 L 205.99 241.51 L 159.74 287.76 C134.31,313.19 113.04,334.00 112.49,334.00 C111.94,334.00 101.03,323.54 88.25,310.75 Z" fill="rgba(254,254,254,1)"/>
</g>
</svg>